<?xml version="1.0" encoding="UTF-8" standalone="no"?>
<!-- Created with Inkscape (http://www.inkscape.org/) -->

<svg
   xmlns:dc="http://purl.org/dc/elements/1.1/"
   xmlns:cc="http://creativecommons.org/ns#"
   xmlns:rdf="http://www.w3.org/1999/02/22-rdf-syntax-ns#"
   xmlns:svg="http://www.w3.org/2000/svg"
   xmlns="http://www.w3.org/2000/svg"
   xmlns:sodipodi="http://sodipodi.sourceforge.net/DTD/sodipodi-0.dtd"
   xmlns:inkscape="http://www.inkscape.org/namespaces/inkscape"
   width="96"
   height="96"
   viewBox="0 0 25.399999 25.399999"
   version="1.1"
   id="svg8"
   inkscape:version="0.92.5 (2060ec1f9f, 2020-04-08)"
   sodipodi:docname="thunderstorm.svg"
   inkscape:export-filename="2.png"
   inkscape:export-xdpi="96"
   inkscape:export-ydpi="96">
  <defs
     id="defs2" />
  <sodipodi:namedview
     id="base"
     pagecolor="#ffffff"
     bordercolor="#666666"
     borderopacity="1.0"
     inkscape:pageopacity="0.0"
     inkscape:pageshadow="2"
     inkscape:zoom="4"
     inkscape:cx="56.970419"
     inkscape:cy="52.870431"
     inkscape:document-units="px"
     inkscape:current-layer="g4644"
     showgrid="false"
     units="px" />
  <metadata
     id="metadata5">
    <rdf:RDF>
      <cc:Work
         rdf:about="">
        <dc:format>image/svg+xml</dc:format>
        <dc:type
           rdf:resource="http://purl.org/dc/dcmitype/StillImage" />
        <dc:title></dc:title>
      </cc:Work>
    </rdf:RDF>
  </metadata>
  <g
     inkscape:label="Layer 1"
     inkscape:groupmode="layer"
     id="layer1"
     transform="translate(0,-271.59997)">
    <g
       id="g4644"
       transform="matrix(0.1558456,0,0,0.1558456,-13.730243,240.11843)"
       style="stroke:none">
      <g
         id="g4634"
         style="stroke:none">
        <path
           style="fill:#000000;stroke:none;stroke-width:0.09999999;stroke-miterlimit:4;stroke-dasharray:none"
           d="m 681.58789,-248.78125 c -58.44948,0.028 -109.92493,34.77767 -126.53711,85.42187 -11.96635,-3.89363 -24.58254,-5.90516 -37.30078,-5.94726 -61.47852,-7.1e-4 -111.31697,45.03962 -111.31641,100.599609 0.0456,13.773717 3.22059,27.392237 9.32813,40.011719 -43.45318,3.270529 -76.94778,37.3456518 -76.9668,78.300781 6e-5,43.401824 37.44985,78.585931 83.64649,78.585941 C 557.56873,113.62276 708.75337,146.53268 825,128.11523 892.12271,121.69968 943.08761,70.571349 943.16406,9.5722656 943.14916,-56.12805 884.37611,-109.46039 811.67773,-109.74219 c 9.32044,-78.75117 -78.47915,-137.6214 -130.08984,-139.03906 z"
           transform="matrix(0.26458332,0,0,0.26458332,0,271.59997)"
           id="path4553"
           inkscape:connector-curvature="0"
           sodipodi:nodetypes="ccccccccccc" />
        <path
           id="path4590"
           d="m 179.40893,210.09155 c -14.12925,0.007 -26.57263,8.40697 -30.58836,20.64941 -2.89268,-0.94122 -5.94245,-1.42748 -9.01689,-1.43765 -14.86147,-1.7e-4 -26.90914,10.88762 -26.909,24.31838 0.011,3.32958 0.77853,6.62164 2.25493,9.6722 -10.50413,0.7906 -18.600929,9.02773 -18.605526,18.92799 1.5e-5,10.49171 9.052916,18.99692 20.220236,18.99692 34.53456,-3.21991 67.00316,4.11728 97.31224,-0.0184 16.22587,-1.55086 28.54584,-13.91033 28.56432,-28.65591 -0.004,-15.88202 -14.21108,-28.77427 -31.78477,-28.84239 2.14461,-18.86606 -17.99742,-33.24109 -31.44718,-33.61053 z"
           style="fill:#cccccc;stroke:none;stroke-width:0.02417343;stroke-miterlimit:4;stroke-dasharray:none"
           inkscape:connector-curvature="0"
           sodipodi:nodetypes="cccccccccccc" />
      </g>
      <path
         inkscape:connector-curvature="0"
         id="path4592"
         d="m 160.83708,313.70742 c 0.89106,-0.22276 16.70745,-1.11383 16.70745,0.22277 0,1.33659 -5.56915,14.92532 -5.56915,14.92532 l 9.57894,0.22277 -20.49448,32.0783 4.67809,-20.94 -10.69277,-0.6683 z"
         style="fill:#1a1a1a;stroke:none;stroke-width:0.26458332px;stroke-linecap:butt;stroke-linejoin:miter;stroke-opacity:1" />
      <path
         sodipodi:nodetypes="cssc"
         inkscape:connector-curvature="0"
         id="path4594"
         d="m 110.49195,312.37083 c 0,0 -11.604127,13.98544 -8.46511,20.82862 6.20678,13.531 15.0938,6.04834 17.59852,0 2.88755,-6.97282 -9.13341,-20.82862 -9.13341,-20.82862 z"
         style="fill:#b3b3b3;stroke:none;stroke-width:0.26458332px;stroke-linecap:butt;stroke-linejoin:miter;stroke-opacity:1" />
      <path
         sodipodi:nodetypes="cssc"
         inkscape:connector-curvature="0"
         id="path4594-7"
         d="m 137.38318,313.06926 c 0,0 -11.60412,13.98544 -8.46511,20.82862 6.20678,13.531 15.0938,6.04834 17.59852,0 2.88755,-6.97282 -9.13341,-20.82862 -9.13341,-20.82862 z"
         style="fill:#b3b3b3;stroke:none;stroke-width:0.26458332px;stroke-linecap:butt;stroke-linejoin:miter;stroke-opacity:1" />
      <path
         sodipodi:nodetypes="cssc"
         inkscape:connector-curvature="0"
         id="path4594-7-5"
         d="m 201.33605,313.3843 c 0,0 -11.60412,13.98544 -8.46511,20.82862 6.20678,13.531 15.0938,6.04834 17.59852,0 2.88755,-6.97282 -9.13341,-20.82862 -9.13341,-20.82862 z"
         style="fill:#b3b3b3;stroke:none;stroke-width:0.26458332px;stroke-linecap:butt;stroke-linejoin:miter;stroke-opacity:1" />
      <path
         sodipodi:nodetypes="cssc"
         inkscape:connector-curvature="0"
         id="path4594-7-3"
         d="m 227.48427,311.80911 c 0,0 -11.60412,13.98544 -8.46511,20.82862 6.20678,13.531 15.0938,6.04834 17.59852,0 2.88755,-6.97282 -9.13341,-20.82862 -9.13341,-20.82862 z"
         style="fill:#b3b3b3;stroke:none;stroke-width:0.26458332px;stroke-linecap:butt;stroke-linejoin:miter;stroke-opacity:1" />
    </g>
  </g>
</svg>
